PathFileType	4	(X/Y/Z)	/home/nbianco/projects/addbio/data/OpenCap2022/Processed/subject5//results/MarkerData/walkingTS1.trc
DataRate	CameraRate	NumFrames	NumMarkers	Units	OrigDataRate	OrigDataStartFrame	OrigNumFrames
100	100	8	51	m	100	0	150
Frame#	Time	C7			L.ASIS			L.PSIS			L_5meta			L_HJC			L_HJC_reg			L_Shoulder			L_Sternum			L_ankle			L_calc			L_elbow_lat			L_elbow_med			L_forearm			L_humerus			L_knee			L_sh2			L_sh3			L_shank_antsup			L_thigh1			L_thigh2			L_thigh3			L_thigh4			L_toe			L_wrist_radius			L_wrist_ulna			R_HJC			R_HJC_reg			R_Shoulder			R_Sternum			R_elbow_lat			R_elbow_med			R_forearm			R_humerus			R_wrist_radius			R_wrist_ulna			r.ASIS			r.PSIS			r_5meta			r_ankle			r_calc			r_knee			r_sh2			r_sh3			r_sh4			r_shank_antsup			r_thigh1			r_thigh2			r_thigh3			r_thigh4			r_thigh5			r_toe		
		X1	Y1	Z1	X2	Y2	Z2	X3	Y3	Z3	X4	Y4	Z4	X5	Y5	Z5	X6	Y6	Z6	X7	Y7	Z7	X8	Y8	Z8	X9	Y9	Z9	X10	Y10	Z10	X11	Y11	Z11	X12	Y12	Z12	X13	Y13	Z13	X14	Y14	Z14	X15	Y15	Z15	X16	Y16	Z16	X17	Y17	Z17	X18	Y18	Z18	X19	Y19	Z19	X20	Y20	Z20	X21	Y21	Z21	X22	Y22	Z22	X23	Y23	Z23	X24	Y24	Z24	X25	Y25	Z25	X26	Y26	Z26	X27	Y27	Z27	X28	Y28	Z28	X29	Y29	Z29	X30	Y30	Z30	X31	Y31	Z31	X32	Y32	Z32	X33	Y33	Z33	X34	Y34	Z34	X35	Y35	Z35	X36	Y36	Z36	X37	Y37	Z37	X38	Y38	Z38	X39	Y39	Z39	X40	Y40	Z40	X41	Y41	Z41	X42	Y42	Z42	X43	Y43	Z43	X44	Y44	Z44	X45	Y45	Z45	X46	Y46	Z46	X47	Y47	Z47	X48	Y48	Z48	X49	Y49	Z49	X50	Y50	Z50	X51	Y51	Z51

1	0	-0.23105	1.58032	-0.229716	-0.0795754	1.01574	-0.329191	-0.2693	1.07341	-0.237739	-0.285278	0.0298525	-0.327988	-0.16708	0.944599	-0.297354	-0.151757	0.948781	-0.275308	-0.161347	1.55939	-0.369425	-0.0733449	1.50679	-0.238265	-0.43086	0.107899	-0.297075	-0.510681	0.0691632	-0.26377	-0.0682049	1.24999	-0.521139	-0.100601	1.2183	-0.463511	0.0919805	1.179	-0.506504	-0.0846675	1.33647	-0.495181	-0.248828	0.515251	-0.326305	-0.338764	0.430115	-0.350334	-0.382516	0.317126	-0.346854	-0.259209	0.38983	-0.328771	-0.122981	0.827426	-0.361832	-0.13349	0.691309	-0.348232	-0.240716	0.835082	-0.365233	-0.244266	0.694689	-0.356344	-0.269778	0.0519382	-0.260704	0.180494	1.14593	-0.4769	0.166452	1.11678	-0.501603	-0.153865	0.952901	-0.0675162	-0.142927	0.945972	-0.104096	-0.186036	1.54574	-0.0526593	-0.0793167	1.50823	-0.183308	-0.285491	1.20408	0.0553514	-0.287185	1.19462	-0.0274026	-0.215933	1.05887	0.084506	-0.24905	1.28685	0.043465	-0.169929	0.953424	0.0854541	-0.213907	0.95039	0.095705	-0.0648033	1.02852	-0.0701344	-0.263984	1.07172	-0.134665	0.277663	0.0865421	-0.0342334	0.113673	0.110839	-0.0520215	0.070604	0.044677	-0.0940112	-0.0085333	0.530712	-0.043069	0.0774566	0.361313	-0.0272631	-0.0292996	0.444546	-0.00775948	-0.000545033	0.333526	-0.0106359	0.0381105	0.467848	-0.035407	-0.039443	0.849994	-0.0218702	0.00167698	0.749122	-0.0350921	-0.0369692	0.70349	0.000725235	-0.141089	0.803155	-0.00682905	-0.092218	0.698032	-0.00928941	0.293608	0.124977	-0.092479
2	0.01	-0.220073	1.57941	-0.226853	-0.0674088	1.01455	-0.328287	-0.257202	1.07194	-0.236168	-0.285234	0.0297403	-0.328044	-0.154703	0.943263	-0.295755	-0.139318	0.947499	-0.273931	-0.150584	1.55955	-0.366633	-0.0623192	1.50593	-0.235955	-0.428881	0.110963	-0.296917	-0.509489	0.073949	-0.263481	-0.0605685	1.24971	-0.519689	-0.0925709	1.21795	-0.461807	0.100148	1.17851	-0.504056	-0.075872	1.33622	-0.493353	-0.237348	0.514185	-0.325951	-0.329149	0.430841	-0.350135	-0.375863	0.319214	-0.346347	-0.250713	0.388749	-0.328788	-0.111196	0.826278	-0.360433	-0.12176	0.690248	-0.34725	-0.228856	0.833764	-0.363655	-0.232312	0.693364	-0.354869	-0.269684	0.0517977	-0.260645	0.188366	1.14552	-0.473883	0.174817	1.11611	-0.498739	-0.140835	0.95241	-0.0659903	-0.130012	0.945341	-0.102601	-0.174835	1.54396	-0.0500303	-0.068096	1.50734	-0.180911	-0.273506	1.20166	0.0567017	-0.275288	1.1925	-0.0261776	-0.203751	1.05648	0.0855409	-0.237267	1.28453	0.0451443	-0.157629	0.951078	0.0862971	-0.201617	0.947994	0.0964764	-0.0521234	1.02834	-0.0691136	-0.251608	1.07064	-0.133161	0.280239	0.0792223	-0.0338131	0.117259	0.108276	-0.0524018	0.0724431	0.0446852	-0.0945262	0.00256474	0.530184	-0.0434216	0.0857447	0.358531	-0.0276527	-0.0191616	0.443972	-0.00830205	0.00731068	0.332264	-0.0111968	0.0489892	0.465747	-0.0354777	-0.0259873	0.849938	-0.0208651	0.0149802	0.749255	-0.0346513	-0.0238265	0.703196	0.000343797	-0.12784	0.802948	-0.00609778	-0.0790552	0.697772	-0.00957584	0.298019	0.117513	-0.0915252
3	0.02	-0.209069	1.57863	-0.223969	-0.0551494	1.01346	-0.327304	-0.245029	1.07058	-0.234591	-0.2852	0.0296066	-0.328098	-0.142246	0.942039	-0.294102	-0.12681	0.946341	-0.272451	-0.139796	1.55979	-0.363836	-0.0512532	1.50519	-0.23363	-0.426643	0.114311	-0.296753	-0.508038	0.0791988	-0.263142	-0.05291	1.24944	-0.518114	-0.0846595	1.21768	-0.460018	0.108132	1.1779	-0.501573	-0.0671085	1.33602	-0.491453	-0.225482	0.513197	-0.325662	-0.319225	0.431731	-0.349929	-0.368897	0.321518	-0.345819	-0.241909	0.387811	-0.328841	-0.0992326	0.825232	-0.359037	-0.109756	0.689281	-0.346354	-0.216838	0.83253	-0.361987	-0.220111	0.692109	-0.353403	-0.269555	0.0516228	-0.260605	0.196049	1.14486	-0.470838	0.182869	1.11526	-0.495869	-0.127747	0.952074	-0.0644127	-0.11704	0.944914	-0.101042	-0.163592	1.54229	-0.0473874	-0.0568639	1.50654	-0.178517	-0.261462	1.19936	0.0580906	-0.263348	1.19051	-0.0249114	-0.191557	1.05421	0.0866086	-0.225438	1.28234	0.0468385	-0.145333	0.948837	0.0871592	-0.189326	0.945709	0.0972771	-0.0393698	1.0283	-0.0680717	-0.239162	1.06972	-0.131628	0.282729	0.07218	-0.0335265	0.120839	0.105972	-0.0527321	0.0742949	0.0449876	-0.0950102	0.0136021	0.529728	-0.0436843	0.0940216	0.355995	-0.0279921	-0.00912742	0.443474	-0.0088577	0.0151824	0.331142	-0.0118344	0.0597063	0.463837	-0.0354987	-0.012756	0.849914	-0.0196619	0.0280286	0.749349	-0.0340155	-0.0110115	0.702919	0.000132346	-0.114854	0.802844	-0.0053599	-0.0662336	0.697603	-0.0097508	0.30237	0.110258	-0.0907378
4	0.03	-0.198028	1.57804	-0.221063	-0.0427604	1.01252	-0.326208	-0.232763	1.06939	-0.233021	-0.285178	0.0294466	-0.328147	-0.129679	0.940977	-0.292376	-0.114215	0.945363	-0.270826	-0.128977	1.56017	-0.361035	-0.0401345	1.50465	-0.231287	-0.424018	0.118074	-0.296575	-0.506194	0.0851231	-0.262723	-0.0452389	1.24922	-0.51637	-0.0769164	1.2175	-0.458108	0.11586	1.17709	-0.499039	-0.0583887	1.33589	-0.489455	-0.213057	0.512322	-0.32546	-0.308831	0.432861	-0.349702	-0.361459	0.324132	-0.345264	-0.232643	0.387079	-0.328949	-0.0870091	0.824335	-0.357639	-0.0973416	0.688447	-0.345567	-0.204581	0.831403	-0.360209	-0.207541	0.690948	-0.351955	-0.269367	0.0513899	-0.260595	0.203461	1.14387	-0.467757	0.19049	1.11418	-0.492981	-0.1146	0.951963	-0.0627662	-0.104005	0.944783	-0.0993889	-0.152292	1.54081	-0.0447266	-0.0456191	1.50586	-0.176125	-0.249336	1.19725	0.0595337	-0.251341	1.18871	-0.0235851	-0.179343	1.05211	0.0877219	-0.213538	1.28033	0.0485563	-0.133043	0.946751	0.0880488	-0.177034	0.943586	0.0981192	-0.0265357	1.02846	-0.0669929	-0.226631	1.06904	-0.130072	0.285093	0.0655539	-0.0334187	0.124387	0.104017	-0.0529949	0.076149	0.045657	-0.0954471	0.0245764	0.529403	-0.0438212	0.102297	0.353809	-0.0282561	0.000800495	0.443118	-0.00939172	0.0230893	0.330242	-0.0125192	0.0702333	0.462208	-0.0354519	0.000183621	0.849954	-0.0182008	0.0407391	0.749419	-0.033123	0.00137544	0.702695	0.000159601	-0.10221	0.802905	-0.00460377	-0.0538533	0.697575	-0.00976212	0.3066	0.103323	-0.0901922
5	0.04	-0.186947	1.57772	-0.218143	-0.0302087	1.0118	-0.32496	-0.2204	1.06843	-0.231495	-0.28516	0.0292679	-0.328179	-0.116977	0.940143	-0.290567	-0.10153	0.944634	-0.269011	-0.118126	1.56074	-0.358239	-0.0289587	1.50439	-0.228926	-0.42083	0.122414	-0.296368	-0.503763	0.0919837	-0.262174	-0.0375915	1.24906	-0.514417	-0.069396	1.21748	-0.45604	0.123248	1.17606	-0.496436	-0.0497254	1.33587	-0.487328	-0.199859	0.511595	-0.325363	-0.29774	0.434328	-0.349421	-0.35333	0.327167	-0.344668	-0.222703	0.386629	-0.329141	-0.0744284	0.823649	-0.356228	-0.0843412	0.6878	-0.344894	-0.191971	0.830395	-0.358318	-0.194433	0.689897	-0.350541	-0.269072	0.0510653	-0.260632	0.210502	1.14244	-0.464633	0.197567	1.11278	-0.490054	-0.101433	0.952166	-0.0610378	-0.0909278	0.945057	-0.0976062	-0.140927	1.53957	-0.0420484	-0.0343659	1.50541	-0.173739	-0.237101	1.1954	0.0610464	-0.239239	1.18717	-0.0221768	-0.167101	1.05024	0.0888939	-0.201534	1.2786	0.0503104	-0.120757	0.944885	0.088976	-0.164736	0.941691	0.0990156	-0.0136496	1.02889	-0.065849	-0.214029	1.06869	-0.128525	0.287275	0.0595379	-0.0335188	0.127829	0.102487	-0.0531751	0.0779703	0.046703	-0.0958165	0.0355079	0.529306	-0.0437952	0.110588	0.352085	-0.0284117	0.0106608	0.443015	-0.00980888	0.0310574	0.329684	-0.0131333	0.0805776	0.46097	-0.0353182	0.0127946	0.850126	-0.0164549	0.0530558	0.749525	-0.0319402	0.0132807	0.702606	0.000488913	-0.0899477	0.803221	-0.00380094	-0.0419603	0.69776	-0.00954724	0.310585	0.0968715	-0.089971
6	0.05	-0.175834	1.57769	-0.215231	-0.0174959	1.01134	-0.323541	-0.207961	1.06776	-0.230063	-0.285126	0.0291069	-0.328179	-0.104141	0.939581	-0.288678	-0.088775	0.944198	-0.266995	-0.107244	1.56155	-0.355467	-0.0177392	1.50446	-0.226554	-0.416913	0.12745	-0.296105	-0.500548	0.0999695	-0.261439	-0.0300262	1.249	-0.512249	-0.0621255	1.21764	-0.45379	0.130254	1.17478	-0.493756	-0.041124	1.33598	-0.485062	-0.185741	0.511028	-0.325365	-0.285747	0.43621	-0.34904	-0.34431	0.330695	-0.344023	-0.211899	0.386509	-0.329456	-0.0614242	0.82322	-0.354791	-0.0706127	0.687375	-0.344306	-0.178912	0.829479	-0.356354	-0.180644	0.688944	-0.349187	-0.268607	0.050628	-0.260725	0.217113	1.14053	-0.461473	0.20408	1.11102	-0.487062	-0.0883255	0.952744	-0.0592292	-0.0778748	0.945797	-0.0956744	-0.129503	1.53863	-0.0393615	-0.0231134	1.50524	-0.171361	-0.224741	1.19387	0.0626334	-0.227023	1.18592	-0.0206746	-0.154819	1.04867	0.090129	-0.189398	1.2772	0.0521118	-0.108475	0.943293	0.0899485	-0.152427	0.940078	0.0999742	-0.000786198	1.02966	-0.0646051	-0.201404	1.06873	-0.127043	0.28923	0.0543014	-0.0337983	0.131054	0.101377	-0.0532686	0.0797013	0.0480104	-0.0961064	0.0464314	0.529529	-0.0435928	0.11889	0.350863	-0.0284329	0.02052	0.443274	-0.00996734	0.0390901	0.329564	-0.013479	0.0907887	0.460178	-0.0350858	0.025127	0.850515	-0.0144889	0.0650206	0.749773	-0.0305196	0.0247874	0.702758	0.00111592	-0.0779977	0.803875	-0.00290549	-0.0304609	0.69823	-0.0090709	0.314172	0.0910731	-0.0901004
7	0.06	-0.164702	1.57798	-0.212357	-0.00466151	1.01118	-0.321944	-0.195478	1.06739	-0.228773	-0.285038	0.029039	-0.328125	-0.0911981	0.939314	-0.286722	-0.0759777	0.944073	-0.264802	-0.0963342	1.56262	-0.352742	-0.00650282	1.5049	-0.224181	-0.41212	0.133255	-0.295754	-0.496356	0.10919	-0.260463	-0.0226034	1.24907	-0.509888	-0.0551055	1.21801	-0.451356	0.136872	1.17327	-0.491004	-0.0325845	1.33624	-0.482666	-0.170615	0.510601	-0.32545	-0.27269	0.43855	-0.348516	-0.334236	0.334745	-0.343313	-0.200075	0.386741	-0.329939	-0.0479662	0.823073	-0.35332	-0.0560629	0.687193	-0.34375	-0.165337	0.828599	-0.354386	-0.166068	0.688049	-0.347927	-0.267902	0.0500955	-0.260865	0.223275	1.13815	-0.458298	0.210084	1.10888	-0.483996	-0.0753737	0.953725	-0.0573499	-0.0649362	0.947008	-0.0935968	-0.118039	1.53804	-0.0366831	-0.0118707	1.50542	-0.168994	-0.212254	1.19269	0.0642894	-0.214693	1.18501	-0.0190791	-0.142481	1.04741	0.091424	-0.177119	1.27614	0.053965	-0.0961893	0.942008	0.0909721	-0.140102	0.938782	0.100999	0.0119609	1.03081	-0.0632265	-0.188827	1.06916	-0.12569	0.290922	0.0499582	-0.0341808	0.133945	0.100619	-0.0532746	0.081278	0.0493899	-0.0963146	0.0573505	0.530114	-0.0432208	0.127151	0.350107	-0.0283045	0.0304083	0.443953	-0.00972565	0.0471369	0.329917	-0.0133527	0.100897	0.45982	-0.0347437	0.0372903	0.851206	-0.0124449	0.0767472	0.750279	-0.0289871	0.036076	0.703251	0.00196519	-0.0662132	0.804923	-0.00185983	-0.019172	0.699046	-0.00833095	0.317214	0.0860722	-0.0905335
8	0.07	-0.153565	1.57856	-0.209548	0.00822329	1.0113	-0.320171	-0.182983	1.06732	-0.227649	-0.284844	0.0291844	-0.327997	-0.0781898	0.939342	-0.284708	-0.0631652	0.944259	-0.262476	-0.0853902	1.56395	-0.350088	0.00472075	1.50571	-0.22182	-0.406298	0.139874	-0.295276	-0.490977	0.119705	-0.259201	-0.0153688	1.24928	-0.507359	-0.0483225	1.21861	-0.448745	0.143109	1.17157	-0.488195	-0.0241083	1.33666	-0.48016	-0.154421	0.510279	-0.325597	-0.258444	0.441363	-0.347828	-0.322972	0.339329	-0.342518	-0.187095	0.387327	-0.330633	-0.0340556	0.823215	-0.351821	-0.0406417	0.687265	-0.343183	-0.15122	0.827686	-0.352483	-0.150637	0.687159	-0.346802	-0.266875	0.0495469	-0.261028	0.228992	1.13537	-0.45514	0.215645	1.10639	-0.48087	-0.0626548	0.955106	-0.0554096	-0.0521974	0.948645	-0.0913971	-0.106559	1.5378	-0.0340358	-0.000643732	1.50598	-0.166641	-0.199639	1.19189	0.0660031	-0.202264	1.18446	-0.0174009	-0.130068	1.04649	0.0927725	-0.164704	1.27545	0.0558642	-0.0838886	0.941056	0.0920521	-0.127752	0.93783	0.102093	0.0245127	1.03233	-0.0616889	-0.176367	1.06996	-0.124507	0.292326	0.0465451	-0.0345763	0.136403	0.100124	-0.0531852	0.0826484	0.0506606	-0.0964421	0.0681907	0.531037	-0.0426913	0.135253	0.349726	-0.02802	0.0402611	0.44504	-0.00899741	0.0550763	0.330711	-0.0126318	0.110855	0.459821	-0.0342751	0.0493902	0.852249	-0.0104917	0.0883487	0.75112	-0.0274931	0.0473261	0.704141	0.00292618	-0.0544468	0.806386	-0.000608484	-0.00792795	0.700246	-0.00734751	0.319624	0.0819588	-0.0911654
